<mxfile
  host="Electron" 
  agent="Mozilla/5.0 (Macintosh; Intel Mac OS X 10_15_7) AppleWebKit/537.36 (KHTML, like Gecko) draw.io/25.0.2 Chrome/128.0.6613.186 Electron/32.2.5 Safari/537.36" 
  version="25.0.2"
  >
  <diagram
    name="-"
    >
    <mxGraphModel
      grid="1" 
      gridSize="10" 
      guides="1" 
      tooltips="1" 
      connect="1" 
      arrows="1" 
      fold="1" 
      page="1" 
      pageScale="1" 
      pageWidth="1" 
      pageHeight="1" 
      math="0" 
      shadow="0"
      >
      <root>
        <mxCell
          id="page"
          />
        <mxCell
          id="root" 
          parent="page"
          />
        <mxCell
          style="verticalAlign=top;aspect=fixed;align=center;spacingLeft=5;spacingRight=5;spacingBottom=5;strokeColor=none;" 
          id="shape_" 
          parent="root" 
          value=" " 
          vertex="1"
          >
          <mxGeometry
            as="geometry" 
            width="48" 
            height="48" 
            x="0" 
            y="0"
            />
          </mxCell>
        <mxCell
          style="shape=image;editableCssRules=.*;verticalLabelPosition=bottom;labelBackgroundColor=default;verticalAlign=top;aspect=fixed;imageAspect=0;image=data:image/svg+xml,PHN2ZyB4bWxucz0iaHR0cDovL3d3dy53My5vcmcvMjAwMC9zdmciIHZpZXdCb3g9Ii0wLjUgLTAuNSAyNy45NDcgMjgiIGhlaWdodD0iMjgiIHdpZHRoPSIyNy45NDciPiYjeGE7CSAgPHN0eWxlIHR5cGU9InRleHQvY3NzIj4uc3QwIHsgc3RvcC1jb2xvcjogcmdiKDM1LCAxNDksIDI1NSk7IH0gLnN0MSB7IHN0b3AtY29sb3I6IHJnYigwLCA4NywgMjEwKTsgfSA8L3N0eWxlPiYjeGE7CTxkZWZzPiYjeGE7CQk8bGluZWFyR3JhZGllbnQgZ3JhZGllbnRVbml0cz0idXNlclNwYWNlT25Vc2UiIHkyPSIyNS4yNjkiIHgyPSIyMy40NSIgeTE9IjMuNDc0IiB4MT0iMi4wMzQiIGlkPSJBIj4mI3hhOwkJCTxzdG9wIGNsYXNzPSJzdDAiLz4mI3hhOwkJCTxzdG9wIGNsYXNzPSJzdDEiIG9mZnNldD0iMSIvPiYjeGE7CQk8L2xpbmVhckdyYWRpZW50PiYjeGE7CTwvZGVmcz4mI3hhOwk8cGF0aCBmaWxsPSJ1cmwoI0EpIiBkPSJNMTIuMTg5IDIwLjk5MmMuMTQzLS4xNDQuMzEzLS4yNTcuNTAyLS4zMzJzLjM5LS4xMTEuNTkyLS4xMDVjLjQzOCAwIC43NjcuMjAxLjk4NS42MDIuMjkuMjkyLjQzOC42MzkuNDM4IDEuMDRzLS4xNDcuNzQ3LS40MzcgMS4wNGwtMi4wODEgMi4wMjNjLS43MTMuNzE4LTEuNTcgMS4yNzctMi41MTUgMS42NGE2Ljg0IDYuODQgMCAwIDEtMi43OS42MDJjLS45NjItLjAwMy0xLjkxMi0uMjA4LTIuNzktLjYwMi0uODc1LS4zNjQtMS42NzYtLjkxLTIuNDA2LTEuNjQtLjcwOS0uNjk5LTEuMjY3LTEuNTM3LTEuNjQtMi40NmE3LjQ1IDcuNDUgMCAwIDEtLjU0OC0yLjc5YzAtLjk0OC4xODItMS44NzguNTQ4LTIuNzg5cy45MS0xLjczMyAxLjY0LTIuNDYxbDQuMTU2LTQuMTAyYy43My0uNzMgMS41NS0xLjI3NyAyLjQ2LTEuNjQxYTcuMjUgNy4yNSAwIDAgMSAyLjg0NC0uNmMuOTQ4IDAgMS44NzguMiAyLjc5LjYuOTEyLjM2NiAxLjcxNS45MTIgMi40MDYgMS42NDFhMS40MiAxLjQyIDAgMCAxIC40MzggMS4wNGMwIC40MDEtLjE0NS43NDctLjQzNyAxLjAzOGExLjQyIDEuNDIgMCAwIDEtMS4wMzkuNDM4IDEuNDIgMS40MiAwIDAgMS0xLjAzOC0uNDM3Yy0uODQtLjkxLTEuODYtMS4zNjUtMy4wNjItMS4zNjVzLTIuMjQ0LjQ1NS0zLjExOCAxLjM2NWwtNC4xNTMgNC4xMDJjLS45MS44NC0xLjM2NSAxLjg2LTEuMzY1IDMuMDYzcy40NTUgMi4yNjEgMS4zNjUgMy4xNzNjLjg0Ljg3NSAxLjg2IDEuMzEzIDMuMDYzIDEuMzEzczIuMjQ0LS40MzcgMy4xMTktMS4zMTJsMi4wNzQtMi4wODF6bTEzLjAxNy0xOS4yNWMuNzI4LjY5MyAxLjI3NiAxLjQ5NSAxLjY0IDIuNDA2YTYuODQgNi44NCAwIDAgMSAuNjAyIDIuNzljMCAuOTQ5LS4yMDEgMS44NzgtLjYwMiAyLjc5LS4zNjQuODc1LS45MSAxLjY3Ny0xLjY0IDIuNDA2bC00LjEwMiA0LjFjLS43NjcuNzY3LTEuNjA1IDEuMzMtMi41MTcgMS42OTgtLjkwNC4zNjMtMS44NjguNTQ4LTIuODQyLjU0NmE3LjQ1IDcuNDUgMCAwIDEtMi43OS0uNTQ4Yy0uOTAxLS4zODMtMS43MDQtLjk2Mi0yLjM1Mi0xLjY5NmExLjM2IDEuMzYgMCAwIDEtLjQzNy0uOTgzYzAtLjQwMi4xNDUtLjc0Ny40MzgtMS4wNGExLjM2IDEuMzYgMCAwIDEgLjk4NS0uNDM3IDEuNDIgMS40MiAwIDAgMSAxLjAzOC40MzggMy44NSAzLjg1IDAgMCAwIDEuNDIzLjk4NSA0LjM5IDQuMzkgMCAwIDAgMy4zMzYgMGMuNTQ4LS4yMTkgMS4wNC0uNTQ4IDEuNDc3LS45ODVsNC4xNTYtNC4xNTZjLjg3NS0uODM4IDEuMzEzLTEuODU5IDEuMzEzLTMuMDYzcy0uNDM3LTIuMjU5LTEuMzEyLTMuMTcxYy0uODQtLjg3NS0xLjg2LTEuMzEyLTMuMDYyLTEuMzEycy0yLjI2MS40MzgtMy4xNzMgMS4zMTNsLTIuMDc1IDIuMDc3YTEuNDIgMS40MiAwIDAgMS0xLjAzOS40MzggMS40MiAxLjQyIDAgMCAxLTEuMDQtLjQzNyAxLjQyIDEuNDIgMCAwIDEtLjQzNy0xLjA0IDEuNDIgMS40MiAwIDAgMSAuNDM4LTEuMDM4bDIuMDc5LTIuMDgxYy43MjgtLjcyOCAxLjU0OS0xLjI3NiAyLjQ2LTEuNjRhNy4yNSA3LjI1IDAgMCAxIDIuODQyLS42Yy45NDggMCAxLjg3OC4yMDEgMi43OS42MDIuOTEuMzY0IDEuNzEzLjkxIDIuNDA2IDEuNjR6Ii8+JiN4YTs8L3N2Zz4;strokeColor=none;" 
          id="link_sap_" 
          parent="shape_" 
          value=" " 
          vertex="1"
          >
          <mxGeometry
            width="28" 
            height="28" 
            as="geometry" 
            x="10" 
            y="10"
            />
          </mxCell>
        </root>
      </mxGraphModel>
    </diagram>
  </mxfile>